<svg width="736" height="366" viewBox="0 0 736 366" fill="none" xmlns="http://www.w3.org/2000/svg">
<path d="M670.324 -131C675.171 -121.728 678.038 -112.657 679.192 -103.811C695.422 -60.6331 723.444 12.2589 677.39 52.478C626.585 87.8855 642.372 63.8017 581.697 114.146C549.017 141.263 564.232 165.275 585.252 177.007C610.012 182.841 652.192 212.503 622.827 284.472C612.891 305.808 575.554 339.451 505.689 303.342C489.33 296.374 443.608 270.439 421.739 228.607C406.667 199.779 350.9 110.321 464.342 73.1907C522.014 54.3144 691.052 -12.8874 679.192 -103.811C674.823 -115.432 671.31 -124.9 670.324 -131Z" fill="#C4C4C4" stroke="black"/>
<path d="M663.736 -74.4015C665.902 -70.2574 667.494 -66.1137 668.557 -61.9789C681.575 -36.3981 712.616 4.41654 676.229 37.2452C638.588 63.9816 604.201 69.3293 559.424 107.597C535.306 128.209 540.994 171.049 557.143 180.733C573.292 190.418 608.529 210.107 587.896 266.063C580.849 282.625 553.353 308.267 499.742 278.348C487.221 272.512 452.086 251.119 434.638 217.746C429.317 195.64 387.88 146.806 466.652 105.624C515.55 92.9721 688.895 17.1319 668.557 -61.9789C666.163 -66.6831 664.379 -70.872 663.736 -74.4015Z" fill="#A6A3A3" stroke="black"/>
<path d="M617.814 -34.9601C617.814 -26.495 611.93 -18.3243 601.031 -10.8057C590.146 -3.29774 574.363 3.48361 554.816 9.18676C515.727 20.5911 461.696 27.6518 401.995 27.6518C342.294 27.6518 288.264 20.5911 249.175 9.18676C229.628 3.48361 213.845 -3.29774 202.96 -10.8057C192.06 -18.3243 186.177 -26.495 186.177 -34.9601C186.177 -43.4252 192.06 -51.5959 202.96 -59.1145C213.845 -66.6225 229.628 -73.4038 249.175 -79.107C288.264 -90.5113 342.294 -97.572 401.995 -97.572C461.696 -97.572 515.727 -90.5113 554.816 -79.107C574.363 -73.4038 590.146 -66.6225 601.031 -59.1145C611.93 -51.5959 617.814 -43.4252 617.814 -34.9601Z" fill="#C4C4C4" stroke="black"/>
<path d="M164.066 6.97393C171.262 36.6277 170.044 65.3266 162.283 87.7473C154.52 110.174 140.241 126.253 121.35 130.837C102.459 135.421 82.3984 127.675 65.2198 111.301C48.0459 94.9308 33.8096 69.9821 26.6138 40.3284C19.4179 10.6746 20.636 -18.0243 28.3969 -40.445C36.16 -62.8718 50.4391 -78.9509 69.3301 -83.535C88.2211 -88.1191 108.282 -80.3729 125.46 -63.9985C142.634 -47.6285 156.87 -22.6798 164.066 6.97393Z" fill="#C4C4C4" stroke="black"/>
<path d="M148.044 23.5467C157.375 45.9526 177.174 148.063 87.4397 111.086C58.9706 90.9793 17.8713 35.1892 35.5618 -14.8641C35.6058 -14.9887 35.6463 -15.125 35.6835 -15.2722C36.2104 -18.7176 26.0963 -25.6316 35.9549 -27.3001C38.2649 -27.691 41.6717 -27.794 46.5689 -27.4968C54.5674 -5.78265 113.716 21.4634 148.044 23.5467Z" fill="#F2D0C6"/>
<path d="M37.0301 -39.0582C34.7177 -35.0592 36.9816 -18.8814 35.5618 -14.8641M35.5618 -14.8641C17.8713 35.1892 58.9706 90.9793 87.4397 111.086C177.174 148.063 157.375 45.9526 148.044 23.5467C113.716 21.4634 54.5674 -5.78265 46.5689 -27.4968C19.9097 -29.1146 37.4205 -18.8749 35.5618 -14.8641Z" stroke="black"/>
</svg>
