<svg width="103" height="270" viewBox="0 0 103 270" fill="none" xmlns="http://www.w3.org/2000/svg">
<path d="M45.8957 184.679C65.1551 184.755 80.8232 203.097 80.7335 225.817C80.6438 248.536 64.8312 266.754 45.5718 266.678C26.3124 266.602 10.6443 248.26 10.734 225.54C10.8238 202.82 26.6363 184.603 45.8957 184.679Z" fill="#EAD4BB" stroke="black"/>
<path d="M46.6225 0.67993C65.8819 0.756004 81.5501 19.0983 81.4603 41.8179C81.3706 64.5374 65.5581 82.7554 46.2986 82.6793C27.0392 82.6032 11.3711 64.261 11.4609 41.5414C11.5506 18.8218 27.3631 0.603855 46.6225 0.67993Z" fill="#EAD4BB" stroke="black"/>
<path d="M50.5869 9.69568C67.6352 9.76302 81.5225 26.0811 81.4425 46.3178C81.3626 66.5546 67.3469 82.7624 50.2986 82.6951C33.2503 82.6278 19.3631 66.3097 19.443 46.0729C19.523 25.8362 33.5387 9.62834 50.5869 9.69568Z" fill="#FEF7EF" stroke="black"/>
<path d="M49.876 189.694C66.9242 189.762 80.8115 206.08 80.7315 226.316C80.6516 246.553 66.6359 262.761 49.5876 262.694C32.5393 262.626 18.6521 246.308 18.732 226.072C18.812 205.835 32.8277 189.627 49.876 189.694Z" fill="#FEF7EF" stroke="black"/>
<path d="M33.3178 160.409L9.17947 132.311L42.9415 147.552L33.3178 160.409Z" fill="#EAD4BB" stroke="black"/>
<path d="M41.7416 142.915L17.6033 114.817L51.3653 130.058L41.7416 142.915Z" fill="#EAD4BB" stroke="black"/>
<path d="M32.5397 146.83L8.4014 118.732L42.1634 133.973L32.5397 146.83Z" fill="#EAD4BB" stroke="black"/>
<path d="M126.122 0.994049C152.985 1.10016 177.289 16.139 194.859 40.4544C212.429 64.7694 223.238 98.3317 223.092 135.378C222.946 172.425 211.871 205.9 194.11 230.076C176.348 254.252 151.926 269.098 125.063 268.992C98.2005 268.886 73.8965 253.847 56.3263 229.532C38.7564 205.217 27.947 171.654 28.0934 134.608C28.2397 97.5614 39.3139 64.0856 57.0753 39.9102C74.837 15.7343 99.2591 0.887942 126.122 0.994049Z" fill="#EAD4BB" stroke="black"/>
<ellipse cx="102.897" cy="184.404" rx="18" ry="15.5" transform="rotate(-89.7737 102.897 184.404)" fill="black" fill-opacity="0.74"/>
<ellipse cx="103.296" cy="83.4045" rx="18" ry="15.5" transform="rotate(-89.7737 103.296 83.4045)" fill="black" fill-opacity="0.74"/>
<circle cx="102.879" cy="188.904" r="5.5" transform="rotate(-89.7737 102.879 188.904)" fill="#FFFDFB"/>
<circle cx="103.274" cy="88.9045" r="5.5" transform="rotate(-89.7737 103.274 88.9045)" fill="#FFFDFB"/>
</svg>
