<svg width="451" height="576" viewBox="0 0 451 576" fill="none" xmlns="http://www.w3.org/2000/svg">
<path d="M218.847 124.987C220.71 124.136 222.783 123.849 224.807 124.162L251.347 128.258C263.305 130.104 263.17 147.378 251.184 149.036L200.215 156.088C188.229 157.747 183.408 141.159 194.417 136.135L218.847 124.987Z" stroke="black"/>
<path d="M191.386 111.607C193.107 113.495 194.214 115.652 194.628 117.593C195.044 119.544 194.749 121.189 193.805 122.197C192.861 123.206 191.338 123.504 189.541 123.029C187.753 122.556 185.775 121.331 184.053 119.444C182.332 117.557 181.225 115.4 180.811 113.458C180.395 111.507 180.69 109.863 181.634 108.854C182.577 107.845 184.101 107.547 185.898 108.022C187.686 108.495 189.664 109.72 191.386 111.607Z" stroke="black"/>
<path d="M205.519 96.7605C207.013 99.4435 207.754 102.232 207.765 104.556C207.777 106.898 207.057 108.651 205.765 109.474C204.473 110.296 202.689 110.138 200.77 109.01C198.865 107.892 196.927 105.865 195.434 103.182C193.94 100.499 193.199 97.7107 193.188 95.3865C193.176 93.0453 193.896 91.2914 195.188 90.469C196.479 89.6466 198.264 89.8054 200.183 90.9324C202.087 92.0513 204.026 94.0775 205.519 96.7605Z" stroke="black"/>
<path d="M224.568 90.1082C224.953 93.3433 224.505 96.3401 223.494 98.5652C222.479 100.8 220.941 102.177 219.179 102.381C217.417 102.584 215.598 101.596 214.085 99.6527C212.579 97.7185 211.439 94.9054 211.054 91.6702C210.669 88.4351 211.117 85.4383 212.128 83.2132C213.144 80.9781 214.681 79.6015 216.443 79.3978C218.205 79.1941 220.024 80.1828 221.537 82.1257C223.043 84.0599 224.183 86.873 224.568 90.1082Z" stroke="black"/>
<path d="M231.761 94.8107C231.037 97.8615 231.085 100.809 231.723 103.099C232.366 105.405 233.568 106.937 235.078 107.391C236.589 107.845 238.309 107.192 239.887 105.554C241.455 103.927 242.801 101.398 243.525 98.3473C244.249 95.2964 244.201 92.3487 243.563 90.0587C242.92 87.7527 241.718 86.2214 240.207 85.7672C238.697 85.3131 236.976 85.9659 235.398 87.6043C233.831 89.2313 232.484 91.7598 231.761 94.8107Z" stroke="black"/>
<path d="M247.77 104.541C246.684 106.707 246.278 108.99 246.478 110.917C246.677 112.848 247.472 114.361 248.733 115.123C249.994 115.885 251.583 115.813 253.175 114.965C254.764 114.119 256.304 112.521 257.389 110.355C258.474 108.189 258.88 105.905 258.681 103.978C258.481 102.047 257.686 100.534 256.425 99.7725C255.165 99.0105 253.576 99.0825 251.983 99.9303C250.394 100.777 248.855 102.375 247.77 104.541Z" stroke="black"/>
<path d="M325.595 100.669C327.56 101.249 329.313 102.391 330.637 103.955L347.989 124.449C355.808 133.683 344.381 146.637 334.243 140.03L291.135 111.936C280.998 105.329 288.234 89.644 299.84 93.0688L325.595 100.669Z" stroke="black"/>
<path d="M313.633 72.562C313.696 75.1157 313.117 77.4697 312.156 79.207C311.191 80.9528 309.891 82.0016 308.517 82.1444C307.143 82.2872 305.797 81.5133 304.752 79.9763C303.712 78.4469 303.021 76.2248 302.959 73.6711C302.896 71.1174 303.475 68.7634 304.436 67.0261C305.401 65.2802 306.701 64.2315 308.075 64.0887C309.449 63.9459 310.795 64.7198 311.84 66.2568C312.88 67.7862 313.571 70.0083 313.633 72.562Z" stroke="black"/>
<path d="M334.039 70.6186C333.408 73.6234 332.139 76.215 330.624 77.9775C329.098 79.7529 327.404 80.6049 325.889 80.379C324.375 80.1531 323.131 78.863 322.422 76.7541C321.717 74.6605 321.582 71.8595 322.214 68.8546C322.845 65.8498 324.114 63.2583 325.629 61.4958C327.156 59.7203 328.849 58.8683 330.364 59.0942C331.878 59.3201 333.122 60.6102 333.831 62.7192C334.536 64.8128 334.671 67.6138 334.039 70.6186Z" stroke="black"/>
<path d="M352.784 78.0857C350.954 80.7809 348.65 82.7494 346.428 83.7667C344.196 84.7886 342.132 84.82 340.668 83.8184C339.204 82.8169 338.479 80.8777 338.611 78.4189C338.742 75.971 339.725 73.0993 341.556 70.4041C343.386 67.7089 345.69 65.7404 347.912 64.7231C350.144 63.7012 352.208 63.6698 353.672 64.6714C355.136 65.6729 355.861 67.6121 355.729 70.0709C355.598 72.5188 354.615 75.3905 352.784 78.0857Z" stroke="black"/>
<path d="M355.131 86.3521C352.585 88.1812 350.688 90.4382 349.668 92.5857C348.642 94.7481 348.545 96.6925 349.388 98.026C350.231 99.3595 351.958 99.9944 354.224 99.7921C356.474 99.5912 359.149 98.565 361.695 96.7359C364.242 94.9068 366.139 92.6498 367.158 90.5024C368.185 88.3399 368.282 86.3955 367.439 85.062C366.596 83.7285 364.869 83.0936 362.603 83.2959C360.353 83.4969 357.678 84.523 355.131 86.3521Z" stroke="black"/>
<path d="M360.839 104.195C358.6 105.119 356.796 106.577 355.683 108.163C354.568 109.752 354.176 111.415 354.629 112.817C355.081 114.219 356.328 115.207 358.086 115.61C359.841 116.013 362.051 115.816 364.291 114.892C366.53 113.968 368.334 112.51 369.447 110.924C370.562 109.336 370.954 107.672 370.501 106.27C370.049 104.868 368.802 103.881 367.044 103.477C365.289 103.074 363.079 103.271 360.839 104.195Z" stroke="black"/>
<path d="M146.335 318.418C148.34 317.997 150.424 318.171 152.331 318.92L177.327 328.735C188.59 333.158 184.671 349.982 172.612 348.972L121.337 344.678C109.279 343.668 108.213 326.426 120.055 323.939L146.335 318.418Z" stroke="black"/>
<path d="M122.475 299.343C123.741 301.562 124.348 303.909 124.326 305.894C124.304 307.889 123.656 309.429 122.514 310.206C121.372 310.983 119.821 310.94 118.172 310.082C116.531 309.229 114.869 307.6 113.603 305.381C112.337 303.163 111.731 300.816 111.752 298.831C111.774 296.836 112.422 295.296 113.564 294.519C114.706 293.741 116.258 293.785 117.907 294.642C119.548 295.496 121.21 297.125 122.475 299.343Z" stroke="black"/>
<path d="M139.52 287.956C140.389 290.901 140.5 293.785 140.002 296.055C139.5 298.342 138.413 299.895 136.973 300.414C135.532 300.934 133.825 300.387 132.201 298.867C130.588 297.358 129.14 294.956 128.272 292.011C127.403 289.066 127.292 286.182 127.79 283.912C128.292 281.625 129.379 280.072 130.819 279.553C132.26 279.034 133.966 279.58 135.591 281.1C137.204 282.609 138.651 285.011 139.52 287.956Z" stroke="black"/>
<path d="M159.564 285.642C159.231 288.883 158.136 291.709 156.662 293.658C155.181 295.616 153.379 296.622 151.615 296.435C149.851 296.247 148.294 294.884 147.244 292.656C146.198 290.439 145.702 287.444 146.036 284.203C146.37 280.963 147.464 278.137 148.938 276.188C150.419 274.23 152.221 273.224 153.985 273.411C155.749 273.599 157.307 274.962 158.357 277.19C159.402 279.407 159.898 282.402 159.564 285.642Z" stroke="black"/>
<path d="M165.551 291.807C164.176 294.625 163.576 297.512 163.696 299.886C163.818 302.277 164.655 304.034 166.029 304.809C167.404 305.583 169.225 305.323 171.124 304.071C173.01 302.827 174.878 300.655 176.253 297.837C177.628 295.019 178.228 292.133 178.107 289.759C177.986 287.368 177.149 285.61 175.774 284.836C174.4 284.062 172.579 284.321 170.68 285.574C168.794 286.818 166.926 288.989 165.551 291.807Z" stroke="black"/>
<path d="M179.037 304.811C177.503 306.686 176.606 308.825 176.378 310.749C176.15 312.676 176.594 314.327 177.657 315.347C178.72 316.366 180.286 316.645 182.025 316.166C183.761 315.689 185.613 314.467 187.147 312.592C188.681 310.717 189.578 308.578 189.806 306.654C190.034 304.726 189.59 303.076 188.527 302.056C187.464 301.036 185.898 300.758 184.159 301.236C182.423 301.713 180.57 302.935 179.037 304.811Z" stroke="black"/>
<path d="M235.218 268.331C237.125 269.08 238.771 270.37 239.954 272.043L255.457 293.97C262.443 303.85 249.931 315.76 240.407 308.296L199.908 276.557C190.384 269.093 198.958 254.097 210.221 258.518L235.218 268.331Z" stroke="black"/>
<path d="M225.747 239.29C225.587 241.839 224.806 244.134 223.698 245.781C222.584 247.436 221.197 248.368 219.816 248.39C218.435 248.413 217.162 247.525 216.254 245.903C215.351 244.289 214.856 242.015 215.017 239.466C215.177 236.916 215.958 234.621 217.066 232.974C218.18 231.319 219.566 230.387 220.948 230.365C222.329 230.342 223.602 231.23 224.509 232.852C225.413 234.466 225.907 236.74 225.747 239.29Z" stroke="black"/>
<path d="M246.245 239.13C245.354 242.068 243.865 244.539 242.202 246.163C240.527 247.799 238.765 248.501 237.276 248.144C235.787 247.787 234.661 246.393 234.137 244.231C233.618 242.084 233.727 239.282 234.618 236.343C235.508 233.405 236.998 230.933 238.661 229.309C240.336 227.674 242.097 226.972 243.586 227.329C245.075 227.686 246.202 229.079 246.725 231.242C247.245 233.389 247.136 236.191 246.245 239.13Z" stroke="black"/>
<path d="M264.269 248.2C262.211 250.725 259.745 252.486 257.442 253.306C255.13 254.13 253.071 253.981 251.7 252.856C250.329 251.731 249.775 249.736 250.12 247.298C250.464 244.871 251.694 242.096 253.752 239.57C255.81 237.044 258.276 235.284 260.578 234.464C262.891 233.64 264.949 233.788 266.32 234.913C267.692 236.039 268.245 238.034 267.9 240.472C267.556 242.899 266.327 245.674 264.269 248.2Z" stroke="black"/>
<path d="M265.888 256.639C263.192 258.24 261.106 260.323 259.903 262.373C258.692 264.438 258.427 266.367 259.15 267.769C259.874 269.171 261.539 269.953 263.814 269.949C266.073 269.945 268.827 269.155 271.523 267.555C274.219 265.954 276.305 263.871 277.508 261.82C278.719 259.755 278.984 257.827 278.26 256.425C277.537 255.023 275.872 254.24 273.597 254.245C271.338 254.249 268.584 255.039 265.888 256.639Z" stroke="black"/>
<path d="M270.021 274.911C267.709 275.637 265.786 276.932 264.539 278.415C263.29 279.901 262.755 281.524 263.084 282.96C263.412 284.396 264.568 285.488 266.285 286.043C267.998 286.597 270.217 286.593 272.528 285.868C274.84 285.142 276.764 283.847 278.01 282.364C279.259 280.878 279.794 279.255 279.466 277.819C279.137 276.383 277.981 275.291 276.265 274.736C274.552 274.182 272.333 274.186 270.021 274.911Z" stroke="black"/>
<path d="M66.0837 520.377C67.9378 519.505 70.0064 519.194 72.0347 519.484L98.6192 523.275C110.598 524.984 110.661 542.258 98.6949 544.054L47.81 551.69C35.8437 553.486 30.8334 536.954 41.7832 531.805L66.0837 520.377Z" stroke="black"/>
<path d="M38.4712 507.313C40.2142 509.181 41.3452 511.325 41.7814 513.261C42.2198 515.207 41.9443 516.855 41.012 517.875C40.0797 518.894 38.5602 519.21 36.7578 518.755C34.9644 518.303 32.9719 517.101 31.2289 515.233C29.4858 513.366 28.3548 511.222 27.9186 509.285C27.4802 507.339 27.7557 505.691 28.688 504.672C29.6203 503.652 31.1398 503.337 32.9422 503.792C34.7357 504.244 36.7281 505.446 38.4712 507.313Z" stroke="black"/>
<path d="M52.4334 492.305C53.9573 494.971 54.7304 497.751 54.7687 500.075C54.8072 502.416 54.1071 504.178 52.825 505.015C51.5429 505.852 49.7565 505.714 47.8251 504.609C45.9078 503.512 43.946 501.508 42.4221 498.842C40.8982 496.177 40.1251 493.397 40.0868 491.073C40.0483 488.732 40.7483 486.97 42.0305 486.133C43.3126 485.295 45.099 485.434 47.0304 486.539C48.9477 487.636 50.9095 489.64 52.4334 492.305Z" stroke="black"/>
<path d="M71.4049 485.435C71.8271 488.665 71.4128 491.667 70.4276 493.904C69.4379 496.15 67.9164 497.544 66.1568 497.768C64.3971 497.992 62.5669 497.024 61.032 495.099C59.5039 493.182 58.3314 490.382 57.9092 487.152C57.487 483.921 57.9012 480.92 58.8865 478.683C59.8761 476.436 61.3976 475.042 63.1573 474.818C64.9169 474.595 66.7471 475.562 68.282 477.488C69.8101 479.404 70.9827 482.204 71.4049 485.435Z" stroke="black"/>
<path d="M78.6507 490.054C77.9622 493.113 78.0437 496.06 78.7081 498.343C79.3771 500.641 80.5966 502.159 82.1125 502.596C83.6285 503.032 85.341 502.36 86.9002 500.703C88.4487 499.059 89.7663 496.515 90.4549 493.456C91.1435 490.397 91.0619 487.45 90.3975 485.167C89.7285 482.869 88.509 481.351 86.9931 480.915C85.4772 480.478 83.7646 481.15 82.2054 482.807C80.6569 484.452 79.3393 486.995 78.6507 490.054Z" stroke="black"/>
<path d="M94.7701 499.6C93.7097 501.779 93.3302 504.067 93.5516 505.991C93.7734 507.92 94.5856 509.423 95.8551 510.171C97.1246 510.918 98.7127 510.828 100.295 509.962C101.874 509.097 103.395 507.482 104.456 505.303C105.516 503.125 105.896 500.837 105.674 498.912C105.452 496.984 104.64 495.48 103.371 494.733C102.101 493.985 100.513 494.076 98.9309 494.942C97.3517 495.806 95.8306 497.422 94.7701 499.6Z" stroke="black"/>
<path d="M157.351 471.181C159.381 471.463 161.283 472.333 162.824 473.684L183.018 491.384C192.118 499.36 182.733 513.862 171.729 508.829L124.938 487.424C113.934 482.39 118.77 465.806 130.755 467.476L157.351 471.181Z" stroke="black"/>
<path d="M141.361 445.153C141.801 447.67 141.577 450.083 140.884 451.944C140.188 453.813 139.057 455.043 137.719 455.387C136.381 455.732 134.936 455.166 133.675 453.8C132.42 452.442 131.408 450.346 130.968 447.83C130.529 445.314 130.753 442.9 131.446 441.04C132.142 439.17 133.273 437.94 134.611 437.596C135.948 437.251 137.393 437.818 138.655 439.183C139.91 440.542 140.922 442.637 141.361 445.153Z" stroke="black"/>
<path d="M161.255 440.211C161.075 443.276 160.204 446.027 158.966 447.995C157.72 449.976 156.171 451.07 154.639 451.07C153.108 451.071 151.687 449.979 150.673 447.999C149.667 446.032 149.118 443.282 149.299 440.217C149.479 437.152 150.35 434.401 151.588 432.434C152.834 430.452 154.383 429.358 155.914 429.358C157.446 429.357 158.866 430.449 159.88 432.43C160.887 434.396 161.435 437.146 161.255 440.211Z" stroke="black"/>
<path d="M180.899 444.822C179.487 447.758 177.5 450.046 175.453 451.381C173.397 452.722 171.361 453.059 169.765 452.285C168.168 451.511 167.164 449.7 166.931 447.249C166.698 444.809 167.246 441.823 168.657 438.887C170.068 435.95 172.055 433.663 174.102 432.328C176.159 430.987 178.195 430.65 179.791 431.424C181.387 432.198 182.391 434.008 182.625 436.46C182.858 438.9 182.31 441.886 180.899 444.822Z" stroke="black"/>
<path d="M184.443 452.65C182.195 454.836 180.654 457.349 179.963 459.623C179.268 461.914 179.46 463.851 180.491 465.045C181.522 466.239 183.324 466.612 185.535 466.076C187.73 465.545 190.224 464.134 192.472 461.948C194.72 459.762 196.262 457.249 196.952 454.975C197.648 452.684 197.455 450.747 196.424 449.553C195.393 448.359 193.591 447.986 191.38 448.522C189.185 449.053 186.691 450.464 184.443 452.65Z" stroke="black"/>
<path d="M192.729 469.452C190.651 470.697 189.083 472.406 188.217 474.139C187.349 475.875 187.208 477.578 187.863 478.898C188.518 480.218 189.897 481.01 191.695 481.149C193.49 481.288 195.647 480.765 197.726 479.52C199.804 478.275 201.372 476.566 202.238 474.833C203.106 473.097 203.247 471.394 202.592 470.074C201.937 468.754 200.558 467.962 198.759 467.823C196.964 467.685 194.807 468.207 192.729 469.452Z" stroke="black"/>
</svg>
