<svg width="285" height="197" viewBox="0 0 285 197" fill="none" xmlns="http://www.w3.org/2000/svg">
<path d="M81.4856 141.332C83.7191 138.421 87.429 137.057 91.0161 137.827L109.452 141.784C118.758 143.781 119.67 156.703 110.737 159.988L80.8224 170.99C71.8889 174.275 64.212 163.842 70.0067 156.29L81.4856 141.332Z" stroke="black"/>
<path d="M85.278 149.856C87.3835 147.502 90.5214 146.348 93.6505 146.777L99.8807 147.632C109.685 148.977 111.156 162.544 101.869 165.96L91.4466 169.793C82.1588 173.208 74.4894 161.92 81.0861 154.544L85.278 149.856Z" stroke="black"/>
<path d="M35.8083 132.555C34.4227 131.322 36.0698 129.166 37.6244 130.178L69.2012 150.745C69.9325 151.221 70.1043 152.219 69.5745 152.912L66.1426 157.405C65.6128 158.098 64.605 158.195 63.9532 157.614L35.8083 132.555Z" stroke="black"/>
<path d="M43.4086 109.045C42.3896 107.487 44.5602 105.836 45.7903 107.234L73.748 139.012C74.323 139.666 74.2228 140.67 73.5299 141.197L68.7312 144.847C68.0384 145.374 67.0439 145.202 66.5676 144.474L43.4086 109.045Z" stroke="black"/>
<path d="M67.323 92.0363C66.8637 90.2316 69.4519 89.3724 70.163 91.0936L86.324 130.213C86.6564 131.017 86.2364 131.935 85.4102 132.209L79.6882 134.108C78.862 134.383 77.9767 133.898 77.762 133.055L67.323 92.0363Z" stroke="black"/>
<path d="M92.7246 90.6854C92.798 88.8246 95.5237 88.7376 95.7155 90.59L100.074 132.691C100.163 133.557 99.4996 134.317 98.6295 134.345L92.6036 134.537C91.7335 134.565 91.0226 133.848 91.0569 132.979L92.7246 90.6854Z" stroke="black"/>
<path d="M120.678 114.975C121.401 113.263 123.978 114.134 123.513 115.934L117.287 140.019C117.069 140.863 116.18 141.344 115.354 141.064L111.903 139.897C111.077 139.617 110.663 138.695 111.002 137.892L120.678 114.975Z" stroke="black"/>
<path d="M197.501 101.975C195.611 98.8309 192.079 97.0564 188.428 97.4164L169.663 99.2668C160.19 100.201 157.825 112.937 166.33 117.21L194.811 131.519C203.317 135.792 212.123 126.292 207.218 118.134L197.501 101.975Z" stroke="black"/>
<path d="M192.771 110.017C190.944 107.44 187.957 105.939 184.799 106.013L178.513 106.158C168.619 106.388 165.625 119.702 174.468 124.145L184.39 129.13C193.233 133.572 202.128 123.222 196.406 115.148L192.771 110.017Z" stroke="black"/>
<path d="M243.878 98.4129C245.394 97.3436 244 95.0153 242.341 95.8458L208.644 112.716C207.864 113.106 207.58 114.078 208.029 114.827L210.931 119.678C211.379 120.427 212.37 120.637 213.083 120.134L243.878 98.4129Z" stroke="black"/>
<path d="M238.98 74.1953C240.169 72.7615 238.199 70.876 236.818 72.1264L205.451 100.545C204.806 101.129 204.792 102.138 205.421 102.74L209.777 106.908C210.406 107.51 211.414 107.452 211.969 106.782L238.98 74.1953Z" stroke="black"/>
<path d="M217.139 54.5946C217.8 52.8533 215.325 51.7073 214.424 53.3373L193.949 90.3815C193.528 91.1433 193.842 92.1025 194.632 92.4682L200.103 95.0015C200.893 95.3672 201.827 94.986 202.136 94.172L217.139 54.5946Z" stroke="black"/>
<path d="M192.053 50.3839C192.19 48.5267 189.492 48.1325 189.092 49.9515L180.008 91.2911C179.821 92.1413 180.395 92.9715 181.256 93.0973L187.222 93.9686C188.083 94.0944 188.87 93.463 188.934 92.5949L192.053 50.3839Z" stroke="black"/>
<path d="M161.535 71.3618C161.01 69.579 158.352 70.1541 158.611 71.9945L162.077 96.6284C162.198 97.4916 163.027 98.0698 163.879 97.8855L167.44 97.115C168.292 96.9306 168.808 96.0614 168.562 95.2252L161.535 71.3618Z" stroke="black"/>
</svg>
