<svg width="65" height="62" viewBox="0 0 65 62" fill="none" xmlns="http://www.w3.org/2000/svg">
<rect width="65" height="62" rx="31" fill="#C4C4C4"/>
<rect x="5" y="5" width="56" height="53" rx="26.5" fill="#F2D0C6"/>
<path d="M17.5858 29.5858C16.8047 30.3668 16.8047 31.6332 17.5858 32.4142L30.3137 45.1421C31.0948 45.9232 32.3611 45.9232 33.1421 45.1421C33.9232 44.3611 33.9232 43.0948 33.1421 42.3137L21.8284 31L33.1421 19.6863C33.9232 18.9052 33.9232 17.6389 33.1421 16.8579C32.3611 16.0768 31.0948 16.0768 30.3137 16.8579L17.5858 29.5858ZM46.0438 29L19 29L19 33L46.0438 33L46.0438 29Z" fill="black"/>
</svg>
