<svg width="323" height="283" viewBox="0 0 323 283" fill="none" xmlns="http://www.w3.org/2000/svg">
<path d="M156.356 130.635C161.482 153.739 134.153 169.994 116.343 154.434L106.913 146.195C94.3588 135.227 96.1881 115.176 110.52 106.652L117.237 102.657C131.569 94.1322 150.029 102.116 153.642 118.401L156.356 130.635Z" stroke="black"/>
<path d="M92.7258 99.4767C94.7559 101.388 96.0053 103.755 96.4002 106.019C96.7949 108.283 96.3345 110.415 94.9904 111.931C93.6464 113.447 91.6277 114.111 89.4046 113.91C87.1809 113.708 84.7813 112.639 82.7513 110.727C80.7212 108.815 79.4718 106.449 79.0769 104.184C78.6821 101.921 79.1426 99.7888 80.4866 98.2728C81.8307 96.7568 83.8494 96.0924 86.0725 96.2939C88.2962 96.4955 90.6957 97.565 92.7258 99.4767Z" stroke="black"/>
<path d="M113.584 84.2123C117.04 90.3237 115.728 97.3897 110.94 100.091C106.152 102.792 99.4151 100.266 95.9586 94.1548C92.5021 88.0435 93.8143 80.9775 98.6022 78.2765C103.39 75.5756 110.127 78.101 113.584 84.2123Z" stroke="black"/>
<path d="M119.73 83.769C120.377 86.4812 121.808 88.7429 123.575 90.2125C125.342 91.6817 127.42 92.3436 129.404 91.9325C131.388 91.5214 132.969 90.1012 133.901 88.0728C134.833 86.0438 135.1 83.4303 134.452 80.7181C133.805 78.0058 132.374 75.7441 130.607 74.2745C128.84 72.8053 126.762 72.1435 124.778 72.5546C122.794 72.9657 121.213 74.3858 120.281 76.4142C119.349 78.4432 119.082 81.0567 119.73 83.769Z" stroke="black"/>
<path d="M162.897 119.856C172.72 155.845 129.562 182.438 101.677 157.578L82.6731 140.636C63.9487 123.943 66.5753 93.9916 87.9169 80.8415L100.227 73.2566C121.568 60.1066 149.607 71.1626 156.203 95.3287L162.897 119.856Z" stroke="black"/>
<path d="M239.821 123.478C226.941 143.332 196.19 135.242 194.797 111.634L194.06 99.1327C193.079 82.4915 208.658 69.7375 224.785 73.9802L232.343 75.9684C248.47 80.211 255.72 98.9709 246.641 112.965L239.821 123.478Z" stroke="black"/>
<path d="M217.425 56.2613C217.485 59.0491 216.674 61.5994 215.336 63.4685C213.999 65.3371 212.156 66.5035 210.133 66.6081C208.109 66.7126 206.22 65.739 204.805 64.0126C203.39 62.2857 202.47 59.8249 202.41 57.037C202.35 54.2492 203.161 51.699 204.499 49.8298C205.836 47.9612 207.679 46.7948 209.702 46.6903C211.726 46.5857 213.615 47.5593 215.03 49.2857C216.445 51.0126 217.365 53.4734 217.425 56.2613Z" stroke="black"/>
<path d="M242.933 60.4315C240.999 67.1809 235.041 71.1994 229.758 69.6792C224.475 68.1589 221.552 61.5846 223.486 54.8352C225.421 48.0857 231.379 44.0672 236.662 45.5874C241.944 47.1077 244.867 53.682 242.933 60.4315Z" stroke="black"/>
<path d="M247.559 64.5031C246.079 66.8665 245.469 69.4724 245.66 71.7629C245.852 74.0528 246.837 75.9986 248.521 77.1249C250.205 78.2512 252.326 78.383 254.426 77.6252C256.526 76.8672 258.576 75.2251 260.056 72.8617C261.536 70.4984 262.146 67.8925 261.955 65.602C261.764 63.3121 260.778 61.3662 259.094 60.2399C257.41 59.1136 255.289 58.9819 253.189 59.7397C251.089 60.4976 249.039 62.1398 247.559 64.5031Z" stroke="black"/>
<path d="M252.093 120.585C233.319 152.822 184.098 140.694 182.273 103.381L181.029 77.9512C179.804 52.8961 203.001 33.7694 227.341 39.7668L241.38 43.2261C265.72 49.2235 277.495 76.9676 264.888 98.6144L252.093 120.585Z" stroke="black"/>
</svg>
