<svg width="244" height="347" viewBox="0 0 244 347" fill="none" xmlns="http://www.w3.org/2000/svg">
<path d="M369.251 220.629C362.426 224.274 355.737 226.453 349.203 227.364C317.379 239.648 263.658 260.846 233.616 227.051C207.101 189.711 225.014 201.228 187.388 156.688C167.122 132.697 149.465 144.105 140.926 159.726C136.773 178.075 115.113 209.46 61.7003 188.213C45.8581 181.005 20.7356 153.613 46.9826 101.713C52.0287 89.5703 70.9099 55.5898 101.702 39.1446C122.922 27.8113 188.713 -14.0119 216.91 69.6365C231.245 112.162 282.042 236.728 349.203 227.364C357.768 224.058 364.747 221.398 369.251 220.629Z" fill="#C4C4C4" stroke="black"/>
<path d="M327.354 216.126C324.303 217.756 321.249 218.96 318.199 219.773C299.367 229.566 269.386 252.787 244.873 226.093C224.856 198.431 220.677 173.037 192.086 140.174C176.687 122.474 145.043 126.959 137.987 138.964C130.931 150.969 116.6 177.155 75.0858 162.262C62.7928 157.159 43.6508 136.993 65.4269 97.1522C69.6612 87.8554 85.2521 61.7333 109.818 48.6134C126.13 44.5343 161.973 13.5728 192.94 71.5565C202.615 107.634 259.829 235.328 318.199 219.773C321.662 217.972 324.748 216.625 327.354 216.126Z" fill="#A6A3A3" stroke="black"/>
</svg>
