<svg width="269" height="446" viewBox="0 0 269 446" fill="none" xmlns="http://www.w3.org/2000/svg">
<path d="M230.255 349.974C232.177 363.665 212.74 368.48 208.049 355.475L188.374 300.93C186.06 294.514 189.806 287.505 196.427 285.865L208.039 282.988C214.659 281.348 221.244 285.798 222.193 292.552L230.255 349.974Z" stroke="black"/>
<path d="M209.622 262.519C209.319 265.067 207.646 267.248 205.108 268.698C202.57 270.148 199.196 270.845 195.59 270.415C191.984 269.986 188.868 268.516 186.741 266.511C184.615 264.505 183.501 261.993 183.805 259.445C184.108 256.896 185.781 254.715 188.319 253.266C190.856 251.816 194.231 251.119 197.837 251.549C201.443 251.978 204.559 253.448 206.686 255.453C208.812 257.458 209.926 259.971 209.622 262.519Z" stroke="black"/>
<path d="M218.166 249.117C218.436 251.105 218.247 252.938 217.746 254.289C217.237 255.663 216.463 256.413 215.641 256.525C214.818 256.637 213.873 256.12 213.015 254.932C212.172 253.763 211.5 252.047 211.23 250.06C210.96 248.073 211.149 246.239 211.65 244.888C212.159 243.514 212.933 242.764 213.755 242.652C214.578 242.541 215.524 243.057 216.381 244.245C217.224 245.414 217.896 247.13 218.166 249.117Z" stroke="black"/>
<path d="M185.315 239.048C186.564 244.841 183.918 250.091 179.709 250.999C175.5 251.907 170.924 248.215 169.674 242.422C168.425 236.629 171.071 231.379 175.28 230.471C179.49 229.563 184.065 233.255 185.315 239.048Z" stroke="black"/>
<path d="M203.207 222.4C204.724 229.436 200.46 236.292 193.729 237.744C186.998 239.196 180.286 234.708 178.769 227.672C177.251 220.636 181.515 213.781 188.246 212.329C194.977 210.877 201.689 215.365 203.207 222.4Z" stroke="black"/>
<rect x="185.4" y="223.791" width="9.47028" height="19" transform="rotate(42.176 185.4 223.791)" fill="#FEF7EF"/>
<path d="M172.041 202.895C173.595 206.449 172.381 210.247 169.561 211.48C166.741 212.713 163.129 211.025 161.575 207.471C160.021 203.916 161.235 200.118 164.055 198.886C166.874 197.653 170.487 199.34 172.041 202.895Z" stroke="black"/>
<path d="M184.757 189.041C185.263 191.387 185.082 193.626 184.405 195.343C183.726 197.064 182.578 198.206 181.173 198.509C179.768 198.813 178.251 198.246 176.924 196.957C175.599 195.672 174.511 193.707 174.004 191.36C173.498 189.014 173.68 186.775 174.357 185.058C175.035 183.337 176.183 182.195 177.588 181.892C178.994 181.589 180.51 182.156 181.838 183.444C183.162 184.729 184.251 186.694 184.757 189.041Z" stroke="black"/>
<path d="M200.088 198.881C200.228 202.702 197.824 205.71 194.928 205.816C192.033 205.921 189.416 203.096 189.277 199.275C189.138 195.455 191.541 192.446 194.437 192.34C197.332 192.235 199.949 195.06 200.088 198.881Z" stroke="black"/>
<path d="M170.058 395.991C175.275 408.794 157.609 418.223 149.876 406.763L117.442 358.697C113.627 353.043 115.543 345.33 121.56 342.119L132.114 336.486C138.132 333.275 145.605 335.976 148.179 342.292L170.058 395.991Z" stroke="black"/>
<path d="M128.636 316.252C128.966 318.797 127.879 321.321 125.773 323.349C123.668 325.376 120.567 326.878 116.965 327.344C113.364 327.811 109.982 327.149 107.43 325.726C104.877 324.302 103.182 322.139 102.852 319.594C102.522 317.049 103.61 314.525 105.715 312.498C107.821 310.471 110.922 308.969 114.523 308.502C118.125 308.035 121.506 308.697 124.059 310.121C126.611 311.544 128.307 313.708 128.636 316.252Z" stroke="black"/>
<path d="M133.638 301.166C134.387 303.027 134.652 304.85 134.497 306.283C134.34 307.74 133.774 308.657 133.004 308.967C132.234 309.276 131.19 309.007 130.068 308.065C128.964 307.139 127.893 305.639 127.144 303.779C126.395 301.918 126.13 300.094 126.285 298.662C126.442 297.205 127.008 296.288 127.778 295.978C128.548 295.668 129.592 295.937 130.714 296.88C131.818 297.806 132.89 299.305 133.638 301.166Z" stroke="black"/>
<path d="M99.3209 299.449C101.951 304.76 100.671 310.497 96.8125 312.409C92.9538 314.32 87.6137 311.861 84.9833 306.55C82.3528 301.239 83.6331 295.502 87.4917 293.59C91.3504 291.679 96.6905 294.138 99.3209 299.449Z" stroke="black"/>
<path d="M112.591 278.927C115.786 285.376 113.33 293.068 107.16 296.124C100.989 299.18 93.3831 296.473 90.1884 290.023C86.9938 283.573 89.4492 275.882 95.6197 272.825C101.79 269.769 109.396 272.477 112.591 278.927Z" stroke="black"/>
<rect x="95.6669" y="284.636" width="9.47028" height="19" transform="rotate(28.0001 95.6669 284.636)" fill="#FEF7EF"/>
<path d="M77.5974 267.648C79.9747 270.713 79.7275 274.693 77.2956 276.579C74.8638 278.464 70.9481 277.713 68.5708 274.647C66.1935 271.582 66.4406 267.602 68.8725 265.716C71.3044 263.831 75.2201 264.582 77.5974 267.648Z" stroke="black"/>
<path d="M86.5336 251.101C87.5989 253.252 87.9714 255.467 87.7355 257.298C87.4992 259.133 86.666 260.521 85.3777 261.159C84.0894 261.797 82.4802 261.619 80.8775 260.695C79.2783 259.773 77.7418 258.134 76.6764 255.983C75.611 253.832 75.2386 251.617 75.4744 249.786C75.7108 247.952 76.544 246.563 77.8323 245.925C79.1206 245.287 80.7297 245.466 82.3325 246.39C83.9317 247.311 85.4682 248.95 86.5336 251.101Z" stroke="black"/>
<path d="M103.808 256.887C104.878 260.557 103.285 264.063 100.503 264.874C97.7223 265.686 94.4933 263.587 93.4223 259.917C92.3514 256.247 93.9453 252.741 96.7264 251.93C99.5076 251.118 102.737 253.216 103.808 256.887Z" stroke="black"/>
<path d="M41.8864 130.584C44.1431 126.764 48.5572 124.775 52.9138 125.615L63.0201 127.562C73.0844 129.502 74.6915 143.234 65.3471 147.445L50.0056 154.359C40.6612 158.57 31.438 148.27 36.6513 139.446L41.8864 130.584Z" stroke="black"/>
<path d="M60.7681 166.853C62.7553 169.034 63.8628 171.614 64.0645 174.007C64.2661 176.399 63.5641 178.576 61.971 180.028C60.3779 181.479 58.1451 181.976 55.7818 181.554C53.4177 181.131 50.9518 179.789 48.9646 177.608C46.9774 175.427 45.87 172.847 45.6683 170.454C45.4666 168.062 46.1686 165.885 47.7617 164.433C49.3548 162.982 51.5876 162.485 53.951 162.907C56.315 163.33 58.7809 164.672 60.7681 166.853Z" stroke="black"/>
<path d="M79.6767 164.022C79.8364 167.217 79.1461 170.127 77.9273 172.248C76.7054 174.374 74.9941 175.647 73.1147 175.741C71.2353 175.835 69.4055 174.739 67.9776 172.745C66.5533 170.756 65.5762 167.93 65.4165 164.735C65.2568 161.541 65.9471 158.631 67.1658 156.51C68.3878 154.384 70.099 153.11 71.9784 153.016C73.8579 152.922 75.6876 154.019 77.1155 156.013C78.5398 158.001 79.517 160.828 79.6767 164.022Z" stroke="black"/>
<path d="M29.0835 128.9C30.3997 130.558 31.0976 132.425 31.1816 134.086C31.2658 135.749 30.7383 137.163 29.6611 138.018C28.584 138.873 27.0874 139.066 25.4871 138.607C23.8879 138.148 22.2285 137.045 20.9123 135.387C19.5961 133.729 18.8982 131.863 18.8142 130.201C18.73 128.538 19.2575 127.125 20.3347 126.27C21.4118 125.415 22.9084 125.221 24.5087 125.681C26.1079 126.139 27.7673 127.242 29.0835 128.9Z" stroke="black"/>
<path d="M35.0835 111.926C36.3997 113.584 37.0976 115.45 37.1816 117.112C37.2658 118.775 36.7383 120.188 35.6611 121.043C34.584 121.898 33.0874 122.092 31.4871 121.632C29.8879 121.174 28.2285 120.071 26.9123 118.413C25.5961 116.755 24.8982 114.888 24.8142 113.227C24.73 111.564 25.2575 110.15 26.3347 109.295C27.4118 108.44 28.9084 108.247 30.5087 108.706C32.1079 109.165 33.7673 110.268 35.0835 111.926Z" stroke="black"/>
<path d="M53.8229 104.522C54.9354 109.577 52.6383 114.142 48.9977 114.944C45.3571 115.745 41.3553 112.566 40.2428 107.512C39.1302 102.457 41.4273 97.8917 45.0679 97.0904C48.7085 96.289 52.7103 99.468 53.8229 104.522Z" stroke="black"/>
<path d="M70.8537 112.225C70.8024 114.585 70.0603 116.686 68.9266 118.176C67.7926 119.667 66.2947 120.517 64.7097 120.483C63.1248 120.448 61.6652 119.534 60.597 117.995C59.529 116.458 58.8788 114.326 58.93 111.966C58.9813 109.606 59.7235 107.505 60.8571 106.015C61.9912 104.525 63.489 103.674 65.074 103.709C66.659 103.743 68.1185 104.658 69.1868 106.196C70.2547 107.734 70.9049 109.865 70.8537 112.225Z" stroke="black"/>
<path d="M132.58 51.5716C128.738 49.353 123.916 49.7889 120.534 52.6605L112.688 59.3221C104.875 65.9559 110.221 78.7063 120.429 77.7835L137.188 76.2686C147.396 75.3458 150.369 61.8433 141.493 56.7182L132.58 51.5716Z" stroke="black"/>
<path d="M133.952 92.4382C133.292 95.3141 133.595 98.1051 134.595 100.289C135.595 102.471 137.276 104.023 139.377 104.504C141.477 104.986 143.666 104.322 145.517 102.793C147.368 101.263 148.857 98.883 149.516 96.0072C150.176 93.1314 149.873 90.3403 148.873 88.1568C147.874 85.974 146.193 84.4227 144.092 83.941C141.991 83.4593 139.802 84.1232 137.951 85.6524C136.1 87.1821 134.611 89.5624 133.952 92.4382Z" stroke="black"/>
<path d="M116.092 99.2618C117.522 102.123 119.553 104.318 121.656 105.567C123.765 106.818 125.881 107.087 127.565 106.245C129.248 105.404 130.303 103.55 130.567 101.112C130.831 98.6802 130.293 95.7379 128.863 92.8772C127.433 90.0166 125.402 87.8208 123.298 86.5724C121.189 85.3208 119.073 85.0522 117.39 85.8936C115.707 86.7351 114.652 88.5891 114.388 91.0271C114.124 93.4589 114.662 96.4012 116.092 99.2618Z" stroke="black"/>
<path d="M142.904 43.8153C142.572 45.906 142.881 47.8744 143.624 49.363C144.368 50.8526 145.522 51.8248 146.88 52.0404C148.238 52.256 149.637 51.689 150.805 50.503C151.973 49.3177 152.876 47.5418 153.208 45.4511C153.54 43.3604 153.231 41.3919 152.488 39.9034C151.744 38.4138 150.59 37.4416 149.232 37.2259C147.874 37.0103 146.475 37.5773 145.307 38.7634C144.14 39.9486 143.236 41.7245 142.904 43.8153Z" stroke="black"/>
<path d="M129.339 31.9781C129.007 34.0688 129.316 36.0373 130.059 37.5258C130.803 39.0154 131.957 39.9876 133.315 40.2032C134.673 40.4189 136.072 39.8519 137.24 38.6658C138.408 37.4806 139.311 35.7046 139.643 33.6139C139.975 31.5232 139.666 29.5548 138.923 28.0662C138.179 26.5766 137.025 25.6044 135.667 25.3888C134.309 25.1731 132.91 25.7402 131.742 26.9262C130.574 28.1115 129.671 29.8874 129.339 31.9781Z" stroke="black"/>
<path d="M109.38 34.7358C110.894 39.6848 115.138 42.5328 118.702 41.4423C122.267 40.3517 124.191 35.6168 122.677 30.6678C121.163 25.7189 116.919 22.8708 113.354 23.9614C109.79 25.0519 107.866 29.7868 109.38 34.7358Z" stroke="black"/>
<path d="M98.3301 49.812C99.5341 51.8423 101.213 53.3077 102.932 54.0486C104.652 54.7897 106.375 54.7946 107.738 53.986C109.102 53.1773 109.924 51.6636 110.098 49.7989C110.273 47.9348 109.792 45.759 108.588 43.7286C107.384 41.6983 105.706 40.2329 103.986 39.492C102.266 38.7509 100.544 38.746 99.1803 39.5546C97.8167 40.3633 96.9948 41.877 96.8201 43.7417C96.6455 45.6058 97.1261 47.7817 98.3301 49.812Z" stroke="black"/>
</svg>
