<svg width="178" height="115" viewBox="0 0 178 115" fill="none" xmlns="http://www.w3.org/2000/svg">
<path d="M25.0319 130.553C18.4907 103.123 19.722 76.6077 26.9752 55.9197C34.2304 35.2257 47.4805 20.4284 64.9421 16.2644C82.4038 12.1004 100.906 19.3259 116.719 34.5189C132.527 49.7075 145.592 72.8138 152.133 100.244C158.674 127.675 157.443 154.19 150.19 174.878C142.934 195.572 129.684 210.369 112.223 214.533C94.7609 218.697 76.2592 211.472 60.4461 196.279C44.6376 181.09 31.5732 157.984 25.0319 130.553Z" fill="#C4C4C4" stroke="black"/>
<path d="M39.8656 115.302C31.3228 94.5572 13.3969 0.100878 96.2055 34.6084C122.447 53.2982 160.232 105.018 143.696 151.219C143.655 151.334 143.617 151.46 143.582 151.596C143.083 154.778 152.406 161.206 143.287 162.712C141.151 163.065 138.001 163.148 133.476 162.855C126.162 142.755 71.5888 117.353 39.8656 115.302Z" fill="#F2D0C6"/>
<path d="M142.251 173.577C144.403 169.889 142.369 154.927 143.696 151.219M143.696 151.219C160.232 105.018 122.447 53.2982 96.2055 34.6084C13.3969 0.100883 31.3228 94.5572 39.8656 115.302C71.5888 117.353 126.162 142.755 133.476 162.855C158.112 164.448 141.964 154.919 143.696 151.219Z" stroke="black"/>
</svg>
