<svg width="269" height="104" viewBox="0 0 269 104" fill="none" xmlns="http://www.w3.org/2000/svg">
<path d="M84.5 46.5C84.5 65.7596 66.2198 81.5 43.5 81.5C20.7802 81.5 2.5 65.7596 2.5 46.5C2.5 27.2404 20.7802 11.5 43.5 11.5C66.2198 11.5 84.5 27.2404 84.5 46.5Z" fill="#EAD4BB" stroke="black"/>
<path d="M268.5 46.5C268.5 65.7596 250.22 81.5 227.5 81.5C204.78 81.5 186.5 65.7596 186.5 46.5C186.5 27.2404 204.78 11.5 227.5 11.5C250.22 11.5 268.5 27.2404 268.5 46.5Z" fill="#EAD4BB" stroke="black"/>
<path d="M259.5 50.5C259.5 67.5484 243.237 81.5 223 81.5C202.763 81.5 186.5 67.5484 186.5 50.5C186.5 33.4516 202.763 19.5 223 19.5C243.237 19.5 259.5 33.4516 259.5 50.5Z" fill="#FEF7EF" stroke="black"/>
<path d="M79.5 50.5C79.5 67.5484 63.2369 81.5 43 81.5C22.7631 81.5 6.5 67.5484 6.5 50.5C6.5 33.4516 22.7631 19.5 43 19.5C63.2369 19.5 79.5 33.4516 79.5 50.5Z" fill="#FEF7EF" stroke="black"/>
<path d="M108.72 33.8263L136.722 9.5772L121.615 43.3991L108.72 33.8263Z" fill="#EAD4BB" stroke="black"/>
<path d="M126.247 42.1809L154.249 17.9318L139.142 51.7538L126.247 42.1809Z" fill="#EAD4BB" stroke="black"/>
<path d="M122.296 32.9946L150.298 8.74547L135.191 42.5674L122.296 32.9946Z" fill="#EAD4BB" stroke="black"/>
<path d="M268.5 126C268.5 152.863 253.557 177.226 229.311 194.892C205.066 212.558 171.547 223.5 134.5 223.5C97.4533 223.5 63.934 212.558 39.6886 194.892C15.4427 177.226 0.5 152.863 0.5 126C0.5 99.137 15.4427 74.7738 39.6886 57.1076C63.934 39.4419 97.4533 28.5 134.5 28.5C171.547 28.5 205.066 39.4419 229.311 57.1076C253.557 74.7738 268.5 99.137 268.5 126Z" fill="#EAD4BB" stroke="black"/>
<ellipse cx="85" cy="103.5" rx="18" ry="15.5" fill="black" fill-opacity="0.74"/>
<ellipse cx="186" cy="103.5" rx="18" ry="15.5" fill="black" fill-opacity="0.74"/>
<circle cx="80.5" cy="103.5" r="5.5" fill="#FFFDFB"/>
<circle cx="180.5" cy="103.5" r="5.5" fill="#FFFDFB"/>
</svg>
