<svg width="169" height="250" viewBox="0 0 169 250" fill="none" xmlns="http://www.w3.org/2000/svg">
<path d="M39.0021 131.368C25.3632 124.606 24.3858 105.522 37.2625 97.4026L209.742 -11.3573C222.35 -19.3078 238.855 -10.7464 239.617 4.13979L249.826 203.469C250.589 218.355 235.045 228.558 221.691 221.937L39.0021 131.368Z" fill="#D7CDC1" stroke="black"/>
<path d="M63.798 111.261C63.798 123.392 54.613 133.167 43.3524 133.167C32.0919 133.167 22.9069 123.392 22.9069 111.261C22.9069 99.1295 32.0919 89.3538 43.3524 89.3538C54.613 89.3538 63.798 99.1295 63.798 111.261Z" fill="#F2D0C6" stroke="black"/>
<path d="M85.2435 89.8279C85.2435 36.4412 53.744 7.18237 37.9943 -0.773682" stroke="black"/>
<path d="M75.1008 95.1335C69.0165 49.0351 34.1313 27.935 17.4493 23.1472" stroke="black"/>
<path d="M91.0888 133.667C91.0888 187.054 59.5893 216.313 43.8395 224.269" stroke="black"/>
<path d="M79.3923 135.172C74.9627 166.784 55.7932 181.763 46.7622 185.301" stroke="black"/>
<path d="M99.3133 139.513C102.334 192.814 80.6455 223.349 69.4238 231.953" stroke="black"/>
</svg>
