<svg width="410" height="325" viewBox="0 0 410 325" fill="none" xmlns="http://www.w3.org/2000/svg">
<path d="M307.675 161.368C294.036 154.606 293.059 135.522 305.935 127.403L478.415 18.6427C491.023 10.6922 507.528 19.2536 508.29 34.1398L518.499 233.469C519.262 248.355 503.718 258.558 490.363 251.937L307.675 161.368Z" fill="#D7CDC1" stroke="black"/>
<path d="M332.471 141.261C332.471 153.392 323.286 163.167 312.025 163.167C300.765 163.167 291.58 153.392 291.58 141.261C291.58 129.129 300.765 119.354 312.025 119.354C323.286 119.354 332.471 129.129 332.471 141.261Z" fill="#F2D0C6" stroke="black"/>
<path d="M353.916 119.828C353.916 66.4412 322.417 37.1824 306.667 29.2264" stroke="black"/>
<path d="M343.774 125.133C337.689 79.0351 302.804 57.935 286.122 53.1472" stroke="black"/>
<path d="M359.762 163.667C359.762 217.054 328.262 246.313 312.512 254.269" stroke="black"/>
<path d="M348.065 165.172C343.636 196.784 324.466 211.763 315.435 215.301" stroke="black"/>
<path d="M367.986 169.513C371.007 222.814 349.318 253.349 338.097 261.953" stroke="black"/>
<path d="M256.505 269.627C287.691 280.009 340.491 311.952 329.282 366.538L295.043 392.824C296.277 381.972 304.177 353.015 281.093 324.009C266.324 310.367 227.756 298.731 184.404 304.928C155.373 309.078 90.9484 311.531 59.4665 280.799C37.7986 258.78 5.36879 204.25 48.9933 162.288C40.7272 178.326 32.5034 218.375 65.7372 250.262C89.5963 267.261 112.312 280.799 173.2 269.627C173.2 269.627 199.629 257.948 256.505 269.627Z" fill="#F7EAE6" stroke="black"/>
</svg>
